<?xml version="1.0" encoding="utf-8"?>
<!-- Generator: Adobe Illustrator 27.0.0, SVG Export Plug-In . SVG Version: 6.00 Build 0)  -->
<svg version="1.1" id="Layer_1" xmlns="http://www.w3.org/2000/svg" xmlns:xlink="http://www.w3.org/1999/xlink" x="0px" y="0px"
	 viewBox="0 0 866.7 794.5" style="enable-background:new 0 0 866.7 794.5;" xml:space="preserve">
<style type="text/css">
	.st0{fill:url(#SVGID_1_);}
	.st1{fill:url(#SVGID_00000111888821050429045200000006049786630139584954_);}
	.st2{fill:#E5E5E4;}
	
		.st3{fill:url(#SVGID_00000019638376173824733420000013683258553155281814_);stroke:url(#SVGID_00000168821264476848204880000004693134749886534791_);stroke-width:1.5403;stroke-miterlimit:10;}
	
		.st4{fill:url(#SVGID_00000104682407443653765520000010963585829547600828_);stroke:#000000;stroke-width:1.5403;stroke-miterlimit:10;}
	
		.st5{fill:url(#SVGID_00000033355329421395264020000012798925204274686347_);stroke:#000000;stroke-width:1.5403;stroke-miterlimit:10;}
	
		.st6{fill:url(#SVGID_00000181049073268965534290000013177940090931955866_);stroke:#000000;stroke-width:1.5403;stroke-miterlimit:10;}
	
		.st7{fill:url(#SVGID_00000169552254835234078180000004677179334862620308_);stroke:#000000;stroke-width:1.5403;stroke-miterlimit:10;}
	
		.st8{fill:url(#SVGID_00000183242484488045734340000005771099152957096077_);stroke:#000000;stroke-width:1.5403;stroke-miterlimit:10;}
	
		.st9{fill:url(#SVGID_00000104687530319860892630000009152122536299288982_);stroke:#000000;stroke-width:1.5403;stroke-miterlimit:10;}
	.st10{fill:#FFFFFF;}
	
		.st11{fill:url(#SVGID_00000021093332196000556230000013451804234074066620_);stroke:#000000;stroke-width:1.5403;stroke-miterlimit:10;}
	.st12{fill:#D2393C;}
	
		.st13{fill:url(#SVGID_00000057109664733411231140000008331755740758078884_);stroke:#000000;stroke-width:1.5403;stroke-miterlimit:10;}
	.st14{fill:#7A1819;}
	.st15{fill:#C93938;stroke:#000000;stroke-width:1.5403;stroke-miterlimit:10;}
	.st16{fill:#F79592;}
	.st17{fill:#6B6D6D;}
	.st18{stroke:#000000;stroke-width:1.5403;stroke-miterlimit:10;}
	
		.st19{fill:url(#SVGID_00000032608447103958742280000003393658894130990502_);stroke:#000000;stroke-width:1.5403;stroke-miterlimit:10;}
	.st20{fill:#FFFFFF;stroke:#000000;stroke-width:1.5403;stroke-miterlimit:10;}
	.st21{fill:#2C3436;}
	.st22{fill:#D2393C;stroke:#000000;stroke-width:1.5403;stroke-miterlimit:10;}
	.st23{font-family:'Aero';}
	.st24{font-size:75.2202px;}
	.st25{letter-spacing:0.9;}
	.st26{fill:#FFFFFF;stroke:#000000;stroke-width:3.0807;stroke-miterlimit:10;}
	.st27{font-size:154.0327px;}
	.st28{letter-spacing:1.7;}
	.st29{fill:#212121;}
</style>
<image style="display:none;overflow:visible;" width="312" height="305" xlink:href="3DC10AA6.jpg"  transform="matrix(1.9805 0 0 1.9805 259.9398 238.6145)">
</image>
<linearGradient id="SVGID_1_" gradientUnits="userSpaceOnUse" x1="317.8669" y1="281.7198" x2="690.0421" y2="496.5953">
	<stop  offset="0" style="stop-color:#4082B2"/>
	<stop  offset="0.4594" style="stop-color:#3F80B0"/>
	<stop  offset="0.6248" style="stop-color:#3C7BA9"/>
	<stop  offset="0.7428" style="stop-color:#37719E"/>
	<stop  offset="0.8381" style="stop-color:#30628D"/>
	<stop  offset="0.9191" style="stop-color:#265077"/>
	<stop  offset="0.9903" style="stop-color:#1B3A5C"/>
	<stop  offset="1" style="stop-color:#193658"/>
</linearGradient>
<path class="st0" d="M651.9,30.3c-75.2,21.1-150.3,42.3-225.5,63.4l-34.6,674.9l242.8-175.9C640.3,405.2,646.1,217.8,651.9,30.3z"/>
<linearGradient id="SVGID_00000092441129364801962940000017806307100175183247_" gradientUnits="userSpaceOnUse" x1="122.5964" y1="277.4783" x2="537.6675" y2="517.1198">
	<stop  offset="2.770450e-07" style="stop-color:#D4353A"/>
	<stop  offset="0.2286" style="stop-color:#D03438"/>
	<stop  offset="0.4502" style="stop-color:#C42F33"/>
	<stop  offset="0.6689" style="stop-color:#B1272A"/>
	<stop  offset="0.8846" style="stop-color:#961D1D"/>
	<stop  offset="1" style="stop-color:#841615"/>
</linearGradient>
<path style="fill:url(#SVGID_00000092441129364801962940000017806307100175183247_);" d="M191.7,157.7c78.9-22,157.8-44,236.8-66.1
	c-12.4,226.4-24.8,452.7-37.2,679.1C317.1,736,243,701.3,168.9,666.6L191.7,157.7z"/>
<path class="st2" d="M217.7-1.5"/>
<linearGradient id="SVGID_00000029737105701582439140000002037331083095914126_" gradientUnits="userSpaceOnUse" x1="146.9718" y1="189.1911" x2="702.8379" y2="510.1205">
	<stop  offset="0" style="stop-color:#4082B2"/>
	<stop  offset="0.3492" style="stop-color:#193659"/>
	<stop  offset="0.4388" style="stop-color:#275179"/>
	<stop  offset="0.5331" style="stop-color:#326793"/>
	<stop  offset="0.6179" style="stop-color:#3974A2"/>
	<stop  offset="0.6844" style="stop-color:#3B79A8"/>
	<stop  offset="0.7615" style="stop-color:#2F618C"/>
	<stop  offset="0.8561" style="stop-color:#234A6F"/>
	<stop  offset="0.9389" style="stop-color:#1C3B5E"/>
	<stop  offset="1" style="stop-color:#193658"/>
</linearGradient>
<linearGradient id="SVGID_00000067935718759631959360000011509390172993841849_" gradientUnits="userSpaceOnUse" x1="150.8328" y1="397.9634" x2="673.1178" y2="397.9634">
	<stop  offset="0" style="stop-color:#376A95"/>
	<stop  offset="1" style="stop-color:#376A95"/>
</linearGradient>
<path style="fill:url(#SVGID_00000029737105701582439140000002037331083095914126_);stroke:url(#SVGID_00000067935718759631959360000011509390172993841849_);stroke-width:1.5403;stroke-miterlimit:10;" d="
	M153.2,617.1c6.6-157.6,13.1-315.1,19.7-472.7L672.3,7.5l-21.2,592.3L396.2,788.6L151.6,676.9c0.5-22.4,1-44.7,1.6-67.1
	c5.8-2.1,11.5-4.2,17.3-6.3c-0.5,21.1-1,42.1-1.6,63.2l220.2,103l245.4-177l17.3-562.4L191.7,157.7
	c-7.1,149.2-14.2,298.4-21.2,447.5C164.7,609.2,159,613.2,153.2,617.1z"/>
<linearGradient id="SVGID_00000114784834271710655220000001965916817253198235_" gradientUnits="userSpaceOnUse" x1="580.705" y1="121.5507" x2="752.3801" y2="220.6674">
	<stop  offset="0" style="stop-color:#4082B2"/>
	<stop  offset="0.4594" style="stop-color:#3F80B0"/>
	<stop  offset="0.6248" style="stop-color:#3C7BA9"/>
	<stop  offset="0.7428" style="stop-color:#37719E"/>
	<stop  offset="0.8381" style="stop-color:#30628D"/>
	<stop  offset="0.9191" style="stop-color:#265077"/>
	<stop  offset="0.9903" style="stop-color:#1B3A5C"/>
	<stop  offset="1" style="stop-color:#193658"/>
</linearGradient>
<path style="fill:url(#SVGID_00000114784834271710655220000001965916817253198235_);stroke:#000000;stroke-width:1.5403;stroke-miterlimit:10;" d="
	M507.1,249L825.9,93.2c0,0-120.1,78.7-270,167.8L507.1,249z"/>
<linearGradient id="SVGID_00000093149055915875908160000004985582959605045929_" gradientUnits="userSpaceOnUse" x1="597.5472" y1="211.2061" x2="677.2292" y2="257.2106">
	<stop  offset="2.770450e-07" style="stop-color:#D4353A"/>
	<stop  offset="0.2286" style="stop-color:#D03438"/>
	<stop  offset="0.4502" style="stop-color:#C42F33"/>
	<stop  offset="0.6689" style="stop-color:#B1272A"/>
	<stop  offset="0.8846" style="stop-color:#961D1D"/>
	<stop  offset="1" style="stop-color:#841615"/>
</linearGradient>
<path style="fill:url(#SVGID_00000093149055915875908160000004985582959605045929_);stroke:#000000;stroke-width:1.5403;stroke-miterlimit:10;" d="
	M564.2,269c49.9-25.2,99.9-50.3,149.8-75.5c0,0-93.2,70.8-125.5,87.7c-0.5,0.3-7.6,4.5-15.3,0.8C565.2,278.2,564.2,269.5,564.2,269z
	"/>
<linearGradient id="SVGID_00000101785004517788522700000011421797711452021408_" gradientUnits="userSpaceOnUse" x1="654.4548" y1="274.3745" x2="719.9521" y2="312.1894">
	<stop  offset="2.770450e-07" style="stop-color:#D4353A"/>
	<stop  offset="0.2286" style="stop-color:#D03438"/>
	<stop  offset="0.4502" style="stop-color:#C42F33"/>
	<stop  offset="0.6689" style="stop-color:#B1272A"/>
	<stop  offset="0.8846" style="stop-color:#961D1D"/>
	<stop  offset="1" style="stop-color:#841615"/>
</linearGradient>
<path style="fill:url(#SVGID_00000101785004517788522700000011421797711452021408_);stroke:#000000;stroke-width:1.5403;stroke-miterlimit:10;" d="
	M629.8,317l118-53.1l-101.1,70C646.7,333.9,633.8,329.2,629.8,317z"/>
<linearGradient id="SVGID_00000034793099565934183250000014533351651017759669_" gradientUnits="userSpaceOnUse" x1="720.1376" y1="283.1575" x2="812.3782" y2="336.4125">
	<stop  offset="2.770450e-07" style="stop-color:#D4353A"/>
	<stop  offset="0.2286" style="stop-color:#D03438"/>
	<stop  offset="0.4502" style="stop-color:#C42F33"/>
	<stop  offset="0.6689" style="stop-color:#B1272A"/>
	<stop  offset="0.8846" style="stop-color:#961D1D"/>
	<stop  offset="1" style="stop-color:#841615"/>
</linearGradient>
<path style="fill:url(#SVGID_00000034793099565934183250000014533351651017759669_);stroke:#000000;stroke-width:1.5403;stroke-miterlimit:10;" d="
	M687.6,339.4c22.9-13.4,48.6-27,77.1-40.1c31.7-14.5,61.8-25.9,89.2-35c-23,14.5-46.4,29-70.2,43.6C753,326.8,722.3,345.1,692,363
	c-0.7-3.5-1.3-7.1-2-10.6C689.2,348.1,688.4,343.7,687.6,339.4z"/>
<linearGradient id="SVGID_00000025405408014793212660000009365387436793344917_" gradientUnits="userSpaceOnUse" x1="734.0123" y1="350.2016" x2="812.8316" y2="395.7079">
	<stop  offset="2.770450e-07" style="stop-color:#D4353A"/>
	<stop  offset="0.2286" style="stop-color:#D03438"/>
	<stop  offset="0.4502" style="stop-color:#C42F33"/>
	<stop  offset="0.6689" style="stop-color:#B1272A"/>
	<stop  offset="0.8846" style="stop-color:#961D1D"/>
	<stop  offset="1" style="stop-color:#841615"/>
</linearGradient>
<path style="fill:url(#SVGID_00000025405408014793212660000009365387436793344917_);stroke:#000000;stroke-width:1.5403;stroke-miterlimit:10;" d="
	M713.2,386.2c19.4-7.4,39.9-14.7,61.4-21.8c23.5-7.7,46.2-14.4,68-20.3c-18.3,10.2-37.2,20.4-56.5,30.6
	c-23.2,12.2-46.1,23.7-68.5,34.7c-1.1-2.7-2.3-6-3.1-9.8C713.3,394.4,713.1,389.8,713.2,386.2z"/>
<linearGradient id="SVGID_00000020392529255843266660000012753072011091840696_" gradientUnits="userSpaceOnUse" x1="114.3677" y1="305.1189" x2="322.0065" y2="424.9992">
	<stop  offset="2.770450e-07" style="stop-color:#D4353A"/>
	<stop  offset="0.2286" style="stop-color:#D03438"/>
	<stop  offset="0.4502" style="stop-color:#C42F33"/>
	<stop  offset="0.6689" style="stop-color:#B1272A"/>
	<stop  offset="0.8846" style="stop-color:#961D1D"/>
	<stop  offset="1" style="stop-color:#841615"/>
</linearGradient>
<path style="fill:url(#SVGID_00000020392529255843266660000012753072011091840696_);stroke:#000000;stroke-width:1.5403;stroke-miterlimit:10;" d="
	M386,278.1L35.2,442.5c0,0-17.3,18.1,94.4-30.7s262.7-108.5,262.7-108.5l-2.4-25.2H386z"/>
<path class="st10" d="M392.3,303.2c0,0-195.1,82.6-204.5,94.4c0,0,44.8-5.5,77.9-18.9l-44.8,23.6c0,0,12.6,7.1,103-31.5L150,455.1
	c0,0,18.1-0.8,48.8-11.8l-3.9,10.2l155-57.4l-127.4,55.8l23.6-3.1l-66.1,36.2l152.6-53.5c0,0-99.9,43.3-101.5,47.2
	c-1.6,3.9,35.4-5.5,35.4-5.5s-54.3,17.3-55.1,25.2c0,0,101.5-21.2,189.6-62.9C401,435.4,404.9,410.2,392.3,303.2z"/>
<linearGradient id="SVGID_00000183225238394263272880000017569114065101484980_" gradientUnits="userSpaceOnUse" x1="75.4777" y1="384.9083" x2="248.9883" y2="485.0847">
	<stop  offset="2.770450e-07" style="stop-color:#D4353A"/>
	<stop  offset="0.2286" style="stop-color:#D03438"/>
	<stop  offset="0.4502" style="stop-color:#C42F33"/>
	<stop  offset="0.6689" style="stop-color:#B1272A"/>
	<stop  offset="0.8846" style="stop-color:#961D1D"/>
	<stop  offset="1" style="stop-color:#841615"/>
</linearGradient>
<path style="fill:url(#SVGID_00000183225238394263272880000017569114065101484980_);stroke:#000000;stroke-width:1.5403;stroke-miterlimit:10;" d="
	M220.8,402.4L13.2,492.8c0,0,240.7-81,298.1-115.6C311.3,377.2,239.7,408.6,220.8,402.4z"/>
<path class="st12" d="M340.4,399.2c-23.2,8.8-46.5,17.5-70.1,26.3c-27.3,10.1-54.5,20-81.4,29.6c4.3,1.5,9.9,3,16.6,3.4
	c15.5,1,27.6-4.2,33.5-7.4c0,0-24.4,10.2-16.5,0.8L340.4,399.2z"/>
<linearGradient id="SVGID_00000089554039497458163630000003114049162610647465_" gradientUnits="userSpaceOnUse" x1="102.6615" y1="487.2761" x2="314.7837" y2="609.7449">
	<stop  offset="2.770450e-07" style="stop-color:#D4353A"/>
	<stop  offset="0.2286" style="stop-color:#D03438"/>
	<stop  offset="0.4502" style="stop-color:#C42F33"/>
	<stop  offset="0.6689" style="stop-color:#B1272A"/>
	<stop  offset="0.8846" style="stop-color:#961D1D"/>
	<stop  offset="1" style="stop-color:#841615"/>
</linearGradient>
<path style="fill:url(#SVGID_00000089554039497458163630000003114049162610647465_);stroke:#000000;stroke-width:1.5403;stroke-miterlimit:10;" d="
	M192.5,457.4l-103,52.7c13.8-3.7,30.4-8.5,49.1-14.9c9.3-3.2,21.9-7.7,36.6-13.6c15.7-6.3,35.2-14.8,57.3-26
	c-17.7,10.1-35.5,20.1-53.2,30.2L329.4,433l-96,42.5c0,0-11,3.1,3.7,4.7l29.4-7.1c0,0-45.1,12.8-55.1,25.2c0,0,70.8-9.2,189.6-62.9
	c0,0,11.3,7.1,3.4,19.1c0,0-98.6,28.8-119,47.7c0,0-11,28.3,3.7,43.5L11.1,658.5c0,0,166.7-97,265.3-129l2.6-8.9
	c0,0-68.2,32.5-131.1,40.9c0,0,100.7-47.7,122.7-54c0,0-156.3,51.4-188.2,56.1c0,0,189.8-76.6,209.7-81.3c0,0-132.1,38.3-137.9,37.8
	c0,0,30.9-25.2,54.5-26.7l-45.1,2.6c6.6-8.4,13.3-17.2,19.9-26.2C186.6,465.6,189.6,461.5,192.5,457.4z"/>
<path class="st12" d="M192.5,457.4c0,0,43-0.8,49.3-7.6c6.3-6.8-63.4,34.6-75.5,35.7c-0.7,0.1-1.9,0.1-2.3-0.6
	c-1.9-3,14.1-16.8,32.7-31.4C195.3,454.8,193.9,456.1,192.5,457.4z"/>
<path class="st14" d="M402.3,558.4c1-11.4,2.1-22.7,3.1-34.1c-31.9,4.5-56.6,10.7-73.4,15.7c-6,1.8-12.6,3.3-21,6.8
	c-16.3,6.7-33.1,14.2-50.3,22.5c-7.5,3.6-14.9,7.3-22,11c-0.4,3.4-0.4,8.4,2.6,11c4,3.3,10.4,0.2,22-1.6c9.1-1.4,12.7-0.7,21-1
	c7.1-0.3,20.6-1.6,55.6-11C356.4,573.3,377.7,567,402.3,558.4z"/>
<path d="M281.7,525.8c-0.3-2.1-1.4-9.3,0.9-16.5c4.7-15.3,22.6-26.3,44.7-28.1l77.1-26.7c5.7-7,88.2-106.2,164.9-83.6
	c30.6,9,57,36.4,52.7,46.8c-6.7,16-84.7-13.4-101.5,13.4c-6.5,10.3-1.7,25.7,5.5,39.7c-49.5,2.6-98.9,5.2-148.4,7.9
	c0,0-6.8,6.8,4.2,7.3L504,449.3l2.1,7.3l-126.4,37.8c0,0-6.3,12.6,3.7,16.3c0,0-24.1,54-51.4,29.4c-8.6,11.7-22.5,16.7-33.2,12.7
	C285,547.5,282.2,529.6,281.7,525.8z"/>
<ellipse class="st10" cx="308.4" cy="520.9" rx="15.7" ry="22.3"/>
<ellipse class="st10" cx="352.9" cy="507.2" rx="15.7" ry="22.3"/>
<path class="st15" d="M395.4,325.7c-2-18.5-3.9-37-5.9-55.5c10.5-3.8,58.6-19.8,96.4,5.5c5,3.3,10.3,7.7,15.5,13.6
	C466.1,301.5,430.8,313.6,395.4,325.7z"/>
<path class="st16" d="M393.3,270c0,0,23.6-24.6,138.4-13.1c0,0,27.3-2.1,41.9,21.5l-72.4,11C501.4,289.4,466.2,243.2,393.3,270z"/>
<path class="st16" d="M400.2,330.3l102.3-36.2c0,0,97-19.9,115.4-14.2l5.2,4.7c0,0-105.9,7.3-114.8,11.5
	C508.2,296.2,406.5,331.8,400.2,330.3z"/>
<path class="st17" d="M383.4,510.6c0,0,105.9-39.3,135.3-38.8l113.8-26.7l59.8,30.9l-273.7,82.8l-60.8,12.6
	c13.3-6.1,26.6-12.2,39.9-18.4c2.6-9.6,5.2-19.2,7.9-28.8c-10.8,1.7-21.7,3.5-32.5,5.2C372.9,529.5,382.9,512.7,383.4,510.6z"/>
<path class="st18" d="M477.2,367.7c-20.7-14.2-41.4-28.3-62.1-42.5c13.4-5,33.4-11.8,58.2-18.1c41.5-10.5,62.2-15.7,85.3-11.8
	c46.6,7.9,86.2,47.4,80.6,61.4c-2.6,6.5-14.8,6.6-35.8,7.9c-34.8,2.2-63.4-4.3-82.2-10.2c-2,2.5-4.5,5-7.7,7.2
	C499.3,371.8,482.2,368.8,477.2,367.7z"/>
<linearGradient id="SVGID_00000128464408406278811840000008860333914040554938_" gradientUnits="userSpaceOnUse" x1="441.3754" y1="311.9014" x2="441.3754" y2="453.4804">
	<stop  offset="2.770450e-07" style="stop-color:#D4353A"/>
	<stop  offset="0.2286" style="stop-color:#D03438"/>
	<stop  offset="0.4502" style="stop-color:#C42F33"/>
	<stop  offset="0.6689" style="stop-color:#B1272A"/>
	<stop  offset="0.8846" style="stop-color:#961D1D"/>
	<stop  offset="1" style="stop-color:#841615"/>
</linearGradient>
<path style="fill:url(#SVGID_00000128464408406278811840000008860333914040554938_);stroke:#000000;stroke-width:1.5403;stroke-miterlimit:10;" d="
	M408.6,453.5c-1.3-5.4-2.5-10.9-3.7-16.5c-7.4-37.2-8.9-72-7.1-103c24-7.3,48.1-14.7,72.1-22c5.2,41.3,10.5,82.5,15.7,123.8
	C459.9,441.6,434.2,447.5,408.6,453.5z"/>
<path class="st12" d="M502.8,298.5c3.3-1.1,8.5-2.6,14.9-3.9c9.7-1.9,17.2-2.2,20.5-2.4c20.9-0.9,22.3-3.3,56.2-5.9
	c6.7-0.5,16.5-1.2,28.6-1.7c4.8,2.5,7.6,7.1,7.4,11.8c-0.1,2.1-0.9,4.4-2.9,6.8l-110.9,7.9C512,306.9,507.4,302.7,502.8,298.5z"/>
<path class="st12" d="M469.9,311.9c4-2.4,8.8-5,14.6-7.2c8-3.1,15.3-4.6,21.1-5.4c0,0,14.9,11,26,48.8c0,0,1.6,7.1,5.5,8.7
	c3.9,1.6,82.6,0.8,82.6,0.8c0.7,8.2,1.5,16.6,2.6,25.3c1.6,12.9,3.5,25.2,5.7,36.9c-3.8-0.8-7.6-1.6-11.4-2.4
	c-0.8-2.5-1.7-4.7-2.8-6.7c-11.8-22.4-42-26.9-50.7-27.9c-2.8-0.4-22.3-2.7-38.4,11.7c-16.5,14.8-16,35.1-15.8,37.8l-23.1,3.4
	l-8.4-67.9c0,0,60.6,3.9,40.9-27.5c0,0,3.9-14.9-19.3-27.1c-9.4,2.9-18.9,5.8-28.3,8.7C470.3,318.5,470.1,315.2,469.9,311.9z"/>
<path class="st16" d="M535.5,350.4c0,0,93.6-21.2,103.8-18.1l49.6,6.3l-67.6,15.7C621.2,354.4,558.3,359.1,535.5,350.4z"/>
<path class="st20" d="M619.6,357.5l69.2-18.9c0,0,7.9,5.5,8.7,66.9c0,0-34.6,14.9-70.8,14.2L619.6,357.5z"/>
<path d="M673.1,355.2l15.7-2.4l3.9,52.7c-2-3.9-6.1-6.1-10.2-5.5c-3.5,0.5-6.5,2.9-7.9,6.3C674.1,389.2,673.6,372.2,673.1,355.2z"/>
<path d="M652.6,357.6l15.7-2.4l4,52.7c-0.4-0.5-3.9-4.3-9.5-4c-5.3,0.4-8.2,4.2-8.6,4.8C653.7,391.6,653.2,374.6,652.6,357.6z"/>
<path d="M629.1,361.5l15.7-2.4l3.9,52.7c-1.6-4.3-5.9-6.9-10.2-6.3c-3.7,0.5-6.8,3.3-7.9,7.1C630.1,395.5,629.6,378.5,629.1,361.5z"
	/>
<path d="M377.6,478.6"/>
<path class="st12" d="M504,438.5l-126.4,40.1c0,0-4.7,9.2,4.2,7.3c8.9-1.8,122.2-36.7,122.2-36.7V438.5z"/>
<path class="st12" d="M384.4,495.2c0,0-14.2,7.1,1.6,13.4l121.1-36.2c0,0-2.9-7.9-1-15.7l-126.4,37.8"/>
<path class="st12" d="M510.3,470.8c0,0-3.1-47.2,5.5-59c8.7-11.8,19.7-33.8,75.5-18.1c0,0-8.7,0.8-0.8,23.6c0,0,3.9,11.8,26,0
	c0,0,44,7.9,81-11.8v-37c0,0,10.2-10.2,16.5,10.2l0.8,22c0,0,7.1,3.1,4.7,33.8c0,0-122.7,24.4-139.2,24.4c0,0,0.8-48.8-35.4-48
	c0,0-31.5,2.4-24.4,60.6l-13.4,0.8L510.3,470.8z"/>
<path class="st10" d="M697.6,377.7c0,0,14.1-5.8,15,4.9c0.9,10.7,0,14.5,0,14.5s-14.6,4.1-14.6-10.5
	C698,372.2,697.6,377.7,697.6,377.7z"/>
<path d="M604.7,461.3c0,0-7.9,68.4-67.6,36.2c0,0-22-16.5-18.1-40.1c0,0,0.8-48.8,30.7-47.2c0,0,33,7.1,30.7,48.8
	c4.4-0.5,8.9-1,13.4-1.6c4.2-0.5,8.4-1,12.6-1.6L604.7,461.3z"/>
<path class="st21" d="M576.4,453.5c-0.1,18.3-13.7,39.2-29.1,38.5c-12.8-0.5-22.4-15.8-25.2-27.5c-5.2-22,9.1-49.7,25.2-50.3
	C561.4,413.6,576.5,434,576.4,453.5z"/>
<ellipse class="st10" cx="549.7" cy="454" rx="11" ry="20.8"/>
<path d="M714.8,434.6c-0.2,1.4-4.8,29.7-29.3,39.5c-5.3,2.1-20.1,6.8-35.2-1c-13.2-6.7-18.4-18.7-19.7-22
	C658.7,445.6,686.7,440.1,714.8,434.6z"/>
<path d="M516.6,311.1l110.9-7.9c5.8,9.7,11.5,19.4,17.3,29.1c-15.5,0.4-33.1,1.8-52.1,4.8c-21.6,3.4-40.8,8.2-57.2,13.3
	C535.5,350.4,522.1,315,516.6,311.1z"/>
<path class="st22" d="M86.3,230.1"/>
<path class="st22" d="M300.5,550c-28.4,12.1-64,28.6-62,35.3c2.1,7,45,0.4,75.2-5.1c0,0,387-117.2,415.3-113.3
	c0,0,27.5-5.5,39.3,12.6c0,0,3.9,81,2.4,85.7c0,0-16.5-29.1-119.6,0.8S305.8,672.1,305.8,672.1s-64.5,12.6-77.1-7.9l2.4-81
	c4.2-3.5,8.8-7,13.9-10.3C265,559.7,284.9,553.2,300.5,550z"/>
<path class="st14" d="M597.6,639.1c17.8-13.1,35.7-26.2,53.5-39.3V566c20.3-5.1,38.5-9,54.3-12.1c23-4.5,35-5.9,48-0.5
	c8,3.3,13.7,8.1,17.3,11.8c-18.4,11-38.8,22.1-61.3,32.6C669,616.8,631,629.9,597.6,639.1z"/>
<text transform="matrix(1.1262 -0.3066 0.2627 0.9649 293.0641 653.9192)" class="st10 st23 st24 st25">DISPATCH</text>
<text transform="matrix(1.1262 -0.3066 0.2627 0.9649 234.9229 292.7035)" class="st26 st23 st27 st28">ODS</text>
<polygon class="st29" points="395.4,325.7 501.4,289.4 573.7,278.3 577.9,280.8 504,293 395.4,332.4 "/>
<path class="st10" d="M588.9,395.8c1.9-0.5,4.7-1,8.1-0.8c2.2,0.1,6.2,0.4,10.4,2.8c4.6,2.6,7.1,6.3,8.3,8.3
	c0.3,2.9,0.5,5.8,0.8,8.7c0,0-7.9,12.6-26,0L588.9,395.8z"/>
</svg>
